<svg xmlns="http://www.w3.org/2000/svg" xmlns:xlink="http://www.w3.org/1999/xlink" width="24" height="24" viewBox="0 0 24 24">
  <defs>
    <clipPath id="clip-path">
      <rect id="Rectangle_344" data-name="Rectangle 344" width="24" height="24" transform="translate(128 368)" fill="#ff09ef"/>
    </clipPath>
  </defs>
  <g id="ico-swim-pool" transform="translate(-128 -368)" clip-path="url(#clip-path)">
    <g id="Group_788" data-name="Group 788" transform="translate(-105.75 -310.397)">
      <g id="Group_787" data-name="Group 787" transform="translate(235.75 684.397)">
        <path id="Path_537" data-name="Path 537" d="M316.58,56.5a1.591,1.591,0,1,0,0-2.25A1.586,1.586,0,0,0,316.58,56.5Z" transform="translate(-304.639 -52.11)" fill="none" stroke="#1d1d1b" stroke-linecap="round" stroke-linejoin="round" stroke-width="1"/>
        <path id="Path_538" data-name="Path 538" d="M3.75,214.574c1.429,0,1.429,1.7,2.857,1.7s1.429-1.7,2.857-1.7,1.429,1.7,2.857,1.7,1.429-1.7,2.857-1.7,1.429,1.7,2.857,1.7,1.429-1.7,2.857-1.7,1.429,1.7,2.857,1.7" transform="translate(-3.75 -207.504)" fill="none" stroke="#1d1d1b" stroke-linecap="round" stroke-linejoin="round" stroke-width="1"/>
        <path id="Path_539" data-name="Path 539" d="M88.753,283.682c1.421,0,1.421-1.7,2.843-1.7s1.421,1.7,2.843,1.7,1.421-1.7,2.843-1.7,1.421,1.7,2.843,1.7,1.421-1.7,2.843-1.7" transform="translate(-85.86 -271.649)" fill="none" stroke="#1d1d1b" stroke-linecap="round" stroke-linejoin="round" stroke-width="1"/>
        <path id="Path_540" data-name="Path 540" d="M188.422,9.62l-2.675-2.675a.754.754,0,0,1,0-1.066l.634-.634a.754.754,0,0,0,0-1.066l-.208-.209a.754.754,0,0,0-1.066,0l-.77.77a2.486,2.486,0,0,0,0,3.516L185.4,9.318l-1.29,1.813" transform="translate(-177.586 -3.75)" fill="none" stroke="#1d1d1b" stroke-linecap="round" stroke-linejoin="round" stroke-width="1"/>
      </g>
    </g>
  </g>
</svg>
